<?xml version="1.0" standalone="no"?>
<!DOCTYPE svg PUBLIC "-//W3C//DTD SVG 20010904//EN"
 "http://www.w3.org/TR/2001/REC-SVG-20010904/DTD/svg10.dtd">
<svg version="1.0" xmlns="http://www.w3.org/2000/svg"
 width="1408.000000pt" height="1408.000000pt" viewBox="0 0 1408.000000 1408.000000"
 preserveAspectRatio="xMidYMid meet">
<metadata>
Created by potrace 1.14, written by Peter Selinger 2001-2017
</metadata>
<g transform="translate(0.000000,1408.000000) scale(0.100000,-0.100000)"
fill="#000000" stroke="none">
<path d="M2400 9407 l0 -4673 2309 -2309 c1270 -1270 2313 -2311 2318 -2312
14 -5 4644 4627 4637 4638 -4 7 -6 191 -3 294 1 6 1 111 0 235 0 124 0 232 0
240 1 8 1 116 0 240 0 124 0 232 0 240 0 8 1 152 0 320 0 168 0 312 0 320 1 8
1 116 0 240 0 124 0 232 0 240 1 8 1 116 0 240 0 124 0 232 0 240 1 8 1 116 0
240 0 124 0 232 0 240 1 8 1 116 0 240 0 124 0 232 0 240 0 8 1 152 0 320 0
168 0 312 0 320 1 8 1 116 0 240 0 124 0 232 0 240 1 8 1 116 0 240 0 124 0
232 0 240 1 8 1 116 0 240 0 124 0 232 0 240 1 8 1 116 0 240 0 124 0 232 0
240 0 8 1 152 0 320 0 168 0 312 0 320 1 8 1 116 0 240 0 124 0 232 0 240 1 8
1 116 0 240 0 124 0 232 0 240 1 8 1 116 0 240 0 124 0 232 0 240 1 8 1 116 0
240 0 124 0 232 0 240 0 8 0 102 -1 208 l-1 192 -814 0 -815 0 -1500 -1499
-1500 -1499 -1499 1499 -1500 1499 -815 0 -816 0 0 -4673z m7908 -536 l0
-3578 -1639 -1639 -1639 -1639 -1638 1638 -1639 1639 0 3574 c0 1966 2 3574 5
3574 7 0 2312 -2306 2312 -2313 0 -4 -445 -451 -989 -995 l-989 -989 192 -192
c106 -105 190 -191 187 -191 -3 0 1 -5 9 -10 27 -17 317 -310 312 -315 -3 -3
-1 -5 5 -5 8 0 531 -517 551 -545 4 -6 26 -27 50 -47 23 -21 40 -38 37 -38 -2
0 6 -10 18 -23 12 -13 23 -22 25 -22 5 4 117 -110 115 -117 -2 -4 6 -9 17 -13
11 -3 20 -14 20 -22 0 -9 2 -14 5 -11 5 5 179 -166 196 -193 5 -8 9 -10 9 -6
0 5 17 -11 38 -35 20 -24 55 -59 77 -78 22 -19 59 -56 83 -83 23 -26 42 -46
42 -44 0 6 220 -218 231 -234 5 -8 9 -11 9 -8 0 3 42 -37 93 -88 50 -52 99
-101 107 -109 121 -119 275 -274 273 -274 -1 0 18 -19 44 -42 25 -24 69 -67
97 -97 80 -85 88 -91 103 -82 8 4 671 664 1473 1466 l1458 1458 -991 991 -992
991 1160 1162 c638 639 1161 1162 1161 1162 1 1 2 -1609 2 -3578z m-2760 -213
c282 -281 512 -513 512 -515 0 -2 -231 -234 -513 -517 -366 -366 -516 -509
-524 -502 -6 6 -47 46 -92 90 -44 43 -81 83 -81 87 0 5 -4 9 -8 9 -7 0 -842
826 -842 833 0 2 93 96 208 210 114 113 344 344 512 511 168 168 308 305 311
305 3 1 236 -229 517 -511z"/>
</g>
</svg>
