<?xml version="1.0" encoding="UTF-8"?>
<svg width="58px" height="88px" viewBox="0 0 58 88" version="1.1" xmlns="http://www.w3.org/2000/svg" xmlns:xlink="http://www.w3.org/1999/xlink">
    <title>logo-full</title>
    <defs>
        <polygon id="path-1" points="0 2.78383965e-22 57.8797 2.78383965e-22 57.8797 87.3389 0 87.3389"></polygon>
    </defs>
    <g id="Page-1" stroke="none" stroke-width="1" fill="none" fill-rule="evenodd">
        <g id="Fill-378-Clipped" transform="translate(0.000000, 0.000000)">
            <mask id="mask-2" fill="white">
                <use xlink:href="#path-1"></use>
            </mask>
            <g id="path-1"></g>
            <path d="M35.3987,37.1049 L28.9547,30.6599 L22.4807,37.1049 L28.9547,43.5479 L35.3987,37.1049 Z M28.9547,75.3909 L49.4247,54.9209 L49.4247,10.1899 L34.9047,24.7099 L47.3017,37.1059 L28.9617,55.4459 L28.9177,55.4459 L10.5777,37.1059 L22.9747,24.7099 L8.4547,10.1899 L8.4547,54.9209 L28.9247,75.3909 L28.9547,75.3909 Z M28.9187,87.3389 L-0.0003,58.4199 L-0.0003,-0.0001 L10.1947,-0.0001 L28.9387,18.7429 L47.6847,-0.0001 L57.8797,-0.0001 L57.8797,58.4199 L28.9607,87.3389 L28.9187,87.3389 Z" id="Fill-378" fill="#024189" fill-rule="nonzero" mask="url(#mask-2)"></path>
        </g>
    </g>
</svg>