<?xml version="1.0" encoding="UTF-8"?>
<svg width="357px" height="298px" viewBox="0 0 357 298" version="1.1" xmlns="http://www.w3.org/2000/svg" xmlns:xlink="http://www.w3.org/1999/xlink">
    <title>Group 14</title>
    <defs>
        <polygon id="path-1" points="0 0 356 0 356 297 0 297"></polygon>
    </defs>
    <g id="Page-1" stroke="none" stroke-width="1" fill="none" fill-rule="evenodd">
        <g id="icone-2" transform="translate(0.000000, -297.000000)">
            <g id="Group-14" transform="translate(0.060000, 297.397000)">
                <mask id="mask-2" fill="white">
                    <use xlink:href="#path-1"></use>
                </mask>
                <g id="Clip-12"></g>
                <path d="M77.78,19.672 L63.636,19.672 C52.074,19.672 43.017,29.881 43.017,42.914 L43.017,73.099 L-0.06,73.099 L-0.06,119.874 L42.728,119.874 L42.728,200.81 C42.728,204.875 43.08,209.22 45.633,213.457 C47.19,216.04 51.854,222.049 61.503,222.049 C61.923,222.049 62.379,222.038 62.875,222.023 C63.106,222.016 63.359,222.006 63.636,222.006 L78.646,222.006 C84.452,222.006 90.856,219.374 95.779,214.966 C97.178,213.713 98.439,212.337 99.554,210.854 C104.001,231.142 114.145,249.773 129.185,264.812 C149.941,285.569 177.539,297 206.894,297 C236.249,297 263.847,285.569 284.604,264.812 C305.361,244.055 316.792,216.457 316.792,187.102 C316.792,169.443 312.505,152.09 304.482,136.571 C307.607,132.866 309.408,127.845 309.408,122.006 L309.408,66.007 C309.408,53.923 300.419,44.811 288.5,44.811 L132.712,44.811 C129.68,34.29 121.105,27.491 109.821,27.491 L93.231,27.491 C89.465,22.559 84.05,19.672 77.78,19.672 Z M77.78,35.672 C81.821,35.672 82.687,43.491 82.687,43.491 C82.687,43.491 103.47,43.491 109.821,43.491 C116.171,43.491 117.903,48.687 117.903,53.594 C117.903,58.502 118.769,60.811 118.769,60.811 C118.769,60.811 286.191,60.811 288.5,60.811 C290.81,60.811 293.408,61.966 293.408,66.007 C293.408,70.048 293.408,117.099 293.408,122.006 C293.408,126.914 291.098,127.375 289.078,127.375 C287.057,127.375 279.35,127.375 279.35,127.375 C292.745,143.606 300.792,164.414 300.792,187.102 C300.792,238.961 258.752,281 206.894,281 C155.036,281 112.996,238.961 112.996,187.102 C112.996,180.851 113.607,174.743 114.772,168.834 C114.772,168.834 99.97,168.876 94.486,168.876 C90.755,168.876 89.615,171.299 89.615,173.319 C89.615,175.34 89.615,180.893 89.615,191.862 C89.615,202.831 81.244,206.006 78.646,206.006 C76.048,206.006 67.388,206.006 63.636,206.006 C62.802,206.006 62.096,206.049 61.503,206.049 C59.427,206.049 58.728,205.525 58.728,200.81 C58.728,194.748 58.728,103.874 58.728,103.874 L15.94,103.874 L15.94,89.099 L59.017,89.099 C59.017,89.099 59.017,47.244 59.017,42.914 C59.017,38.584 61.326,35.672 63.636,35.672 C65.945,35.672 73.739,35.672 77.78,35.672 L77.78,35.672 Z" id="Fill-13" fill="#4D5558" mask="url(#mask-2)"></path>
            </g>
        </g>
    </g>
</svg>