<?xml version="1.0" encoding="UTF-8"?>
<svg width="309px" height="250px" viewBox="0 0 309 250" version="1.1" xmlns="http://www.w3.org/2000/svg" xmlns:xlink="http://www.w3.org/1999/xlink">
    <title>Fill 15</title>
    <g id="Page-1" stroke="none" stroke-width="1" fill="none" fill-rule="evenodd">
        <g id="icone-2" transform="translate(-25.000000, -27.000000)" fill="#4D5558">
            <path d="M206.018,27.888 L152.002,27.888 L152.002,60.658 L140.772,60.658 L140.772,72.517 L93.121,72.517 L93.121,107.056 L81.493,107.056 L81.493,78.32 L25.943,78.32 L25.943,270.84 L81.501,270.84 L81.501,241.88 L93.121,241.88 L93.121,276.419 L267,276.419 L267,241.88 L278.628,241.88 L278.628,270.628 L333.967,270.628 L333.967,78.32 L278.62,78.32 L278.62,107.056 L267,107.056 L267,72.517 L217.248,72.517 L217.248,60.658 L206.018,60.658 L206.018,27.888 Z M190.018,43.888 L190.018,76.658 L201.248,76.658 L201.248,88.517 L251,88.517 L251,123.056 L294.62,123.056 L294.62,94.32 L317.967,94.32 L317.967,254.628 L294.628,254.628 L294.628,225.88 L251,225.88 L251,260.419 L109.121,260.419 L109.121,225.88 L65.501,225.88 L65.501,254.84 L41.943,254.84 L41.943,94.32 L65.493,94.32 L65.493,123.056 L109.121,123.056 L109.121,88.517 L156.772,88.517 L156.772,76.658 L168.002,76.658 L168.002,43.888 L190.018,43.888 L190.018,43.888 Z" id="Fill-15"></path>
        </g>
    </g>
</svg>