<?xml version="1.0" encoding="UTF-8"?>
<svg width="432px" height="441px" viewBox="0 0 432 441" version="1.1" xmlns="http://www.w3.org/2000/svg" xmlns:xlink="http://www.w3.org/1999/xlink">
    <title>down</title>
    <g id="down" stroke="none" stroke-width="1" fill="none" fill-rule="evenodd">
        <path d="M431.378,432.496 C431.378,437.193 426.49,441 420.46,441 L10.918,441 C4.888,441 0,437.193 0,432.496 L0,405.008 C0,400.312 4.888,396.504 10.918,396.504 L420.46,396.504 C426.49,396.504 431.378,400.312 431.378,405.008 L431.378,432.496" id="Fill-1" fill="#E30613"></path>
        <path d="M377.272,206.097 C376.066,203.206 373.252,201.32 370.129,201.32 L285.421,201.32 L285.421,8.062 C285.421,3.795 281.957,0.332 277.69,0.332 L154.006,0.332 C149.738,0.332 146.275,3.795 146.275,8.062 L146.275,201.32 L61.242,201.32 C58.119,201.32 55.305,203.206 54.099,206.081 C52.909,208.973 53.558,212.297 55.769,214.507 L209.988,369.237 C211.442,370.69 213.405,371.51 215.461,371.51 C217.518,371.51 219.481,370.69 220.934,369.252 L375.602,214.523 C377.813,212.312 378.478,208.988 377.272,206.097" id="Fill-2" fill="#E30613"></path>
    </g>
</svg>