<?xml version="1.0" encoding="UTF-8"?>
<svg width="282px" height="282px" viewBox="0 0 282 282" version="1.1" xmlns="http://www.w3.org/2000/svg" xmlns:xlink="http://www.w3.org/1999/xlink">
    <title>Group 9</title>
    <defs>
        <polygon id="path-1" points="0 0 281.294549 0 281.294549 281.180655 0 281.180655"></polygon>
    </defs>
    <g id="Page-1" stroke="none" stroke-width="1" fill="none" fill-rule="evenodd">
        <g id="icone-2" transform="translate(-430.000000, 0.000000)">
            <g id="Group-9" transform="translate(430.286451, 0.427345)">
                <path d="M171.319549,280.180655 C162.649549,280.180655 153.981549,280.165655 145.312549,280.151655 C136.730549,280.136655 128.148549,280.121655 119.565549,280.121655 L119.314549,280.121655 C110.784549,280.121655 102.255549,280.136655 93.7275492,280.150655 C85.1965492,280.164655 76.6675492,280.180655 68.1385492,280.180655 C54.2465492,280.180655 42.8675492,280.140655 32.3275492,280.055655 C15.7395492,279.922655 1.15654915,265.013655 1.11954915,248.150655 C1.05254915,217.999655 1.06054915,187.344655 1.06654915,157.699655 C1.06954915,145.880655 1.07254915,134.062655 1.07054915,122.243655 C1.06954915,117.524655 1.09454915,112.803655 1.11854915,108.083655 C1.17054915,97.7656547 1.22554915,87.0956547 1.00754915,76.6146547 C0.821549154,67.6756547 4.19554915,59.2026547 10.5095492,52.7576547 C16.9185492,46.2136547 25.8455492,42.4606547 35.0005492,42.4606547 L35.3075492,42.4606547 C49.7425492,42.5896547 65.3985492,42.6486547 84.5755492,42.6486547 C95.7735492,42.6486547 106.970549,42.6296547 118.167549,42.6106547 C129.366549,42.5906547 140.565549,42.5716547 151.763549,42.5716547 L153.061549,42.5716547 C158.555549,42.5716547 161.767549,45.1996547 161.873549,49.7796547 C161.964549,53.7426547 159.194549,56.9156547 155.286549,57.3236547 C154.381549,57.4186547 153.476549,57.4316547 152.632549,57.4316547 L36.2615492,57.4316547 C27.2255492,57.4316547 21.2565492,60.8526547 18.0135492,67.8916547 C16.7345492,70.6656547 16.0255492,74.1016547 16.0185492,77.5656547 C15.8975492,132.261655 15.9115492,185.907655 15.9415492,245.338655 C15.9485492,257.662655 23.6725492,265.320655 36.0985492,265.322655 C64.0365492,265.326655 91.9785492,265.328655 119.915549,265.328655 C147.806549,265.328655 175.693549,265.326655 203.584549,265.323655 C216.072549,265.321655 223.833549,257.587655 223.839549,245.141655 C223.850549,219.681655 223.848549,194.221655 223.847549,168.761655 L223.847549,129.122655 L223.841549,128.413655 C223.831549,127.562655 223.820549,126.681655 223.939549,125.795655 C224.431549,122.125655 227.587549,119.358655 231.280549,119.358655 C235.127549,119.402655 238.172549,122.184655 238.608549,125.973655 C238.673549,126.529655 238.705786,127.136655 238.702549,127.830655 C238.697549,138.942655 238.700549,150.054655 238.702549,161.166655 C238.709549,189.886655 238.717549,219.584655 238.582549,248.794655 C238.506549,265.318655 223.928549,279.927655 207.384549,280.057655 C196.761549,280.141655 185.301549,280.180655 171.319549,280.180655" id="Fill-5" fill="#E30613"></path>
                <mask id="mask-2" fill="white">
                    <use xlink:href="#path-1"></use>
                </mask>
                <g id="Clip-7"></g>
                <path d="M35.0015492,41.4606547 C25.5775492,41.4606547 16.3905492,45.3226547 9.79454915,52.0576547 C3.29154915,58.6966547 -0.184450846,67.4246547 0.00754915397,76.6346547 C0.225549154,87.1066547 0.170549154,97.7726547 0.118549154,108.087655 C0.094549154,112.726655 0.070549154,117.523655 0.071549154,122.243655 C0.072549154,133.997655 0.069549154,145.751655 0.066549154,157.505655 C0.059549154,187.215655 0.052549154,217.936655 0.119549154,248.152655 C0.158549154,265.543655 15.2045492,280.918655 32.3195492,281.055655 C42.8755492,281.140655 54.2745492,281.180655 68.1915492,281.180655 C76.7135492,281.180655 85.2345492,281.165655 93.7565492,281.150655 C102.275549,281.136655 110.794549,281.122655 119.313549,281.122655 L119.565549,281.122655 C128.143549,281.122655 136.722549,281.136655 145.300549,281.151655 C153.966549,281.165655 162.632549,281.180655 171.298549,281.180655 C185.293549,281.180655 196.761549,281.141655 207.392549,281.057655 C224.461549,280.923655 239.504549,265.848655 239.582549,248.798655 C239.716549,219.697655 239.709549,190.110655 239.703549,161.498655 C239.700549,150.275655 239.697549,139.052655 239.703549,127.829655 C239.703549,127.092655 239.670549,126.447655 239.602549,125.858655 C239.106549,121.562655 235.648549,118.408655 231.380549,118.357655 L231.281549,118.357655 C227.088549,118.357655 223.506549,121.498655 222.947549,125.663655 C222.819549,126.619655 222.830549,127.535655 222.841549,128.421655 C222.844549,128.655655 222.847549,128.889655 222.847549,129.122655 C222.846549,142.398655 222.846549,155.675655 222.847549,168.951655 C222.848549,194.347655 222.849549,219.744655 222.838549,245.140655 C222.834549,257.150655 215.635549,264.321655 203.583549,264.322655 C175.489549,264.327655 147.394549,264.329655 119.299549,264.329655 C91.5665492,264.329655 63.8325492,264.327655 36.0985492,264.322655 C24.2885492,264.320655 16.9485492,257.045655 16.9425492,245.338655 C16.9125492,185.953655 16.8965492,132.339655 17.0185492,77.5676547 C17.0255492,74.2926547 17.7185492,70.9176547 18.9215492,68.3096547 C21.9845492,61.6616547 27.6565492,58.4306547 36.2605492,58.4316547 L77.7575492,58.4326547 C102.306549,58.4326547 126.858549,58.4316547 151.407549,58.4286547 L152.016549,58.4296547 L152.634549,58.4316547 C153.503549,58.4316547 154.438549,58.4176547 155.390549,58.3186547 C159.829549,57.8546547 162.976549,54.2536547 162.872549,49.7566547 C162.754549,44.6316547 159.086549,41.5716547 153.061549,41.5706547 L151.805549,41.5706547 C140.602549,41.5706547 129.398549,41.5906547 118.195549,41.6096547 C106.994549,41.6296547 95.7945492,41.6486547 84.5935492,41.6486547 C65.4115492,41.6486547 49.7535492,41.5896547 35.3155492,41.4606547 L35.0015492,41.4606547 Z M35.0015492,43.4606547 C35.1005492,43.4606547 35.1995492,43.4606547 35.2985492,43.4606547 C51.7285492,43.6066547 68.1625492,43.6486547 84.5935492,43.6486547 C106.997549,43.6486547 129.401549,43.5706547 151.805549,43.5706547 C152.224549,43.5706547 152.641549,43.5706547 153.060549,43.5706547 C157.996549,43.5716547 160.781549,45.8126547 160.873549,49.8026547 C160.952549,53.2316547 158.599549,55.9726547 155.182549,56.3296547 C154.339549,56.4176547 153.486549,56.4316547 152.633549,56.4316547 C152.227549,56.4316547 151.820549,56.4286547 151.415549,56.4286547 C151.412549,56.4286547 151.410549,56.4286547 151.407549,56.4286547 C126.858549,56.4316547 102.306549,56.4326547 77.7575492,56.4326547 C63.9245492,56.4326547 50.0945492,56.4316547 36.2605492,56.4316547 C27.7455492,56.4306547 20.7955492,59.4626547 17.1045492,67.4716547 C15.6995492,70.5216547 15.0255492,74.1796547 15.0185492,77.5626547 C14.8945492,133.488655 14.9135492,189.413655 14.9425492,245.339655 C14.9485492,258.222655 23.1625492,266.319655 36.0985492,266.322655 C63.8325492,266.327655 91.5665492,266.329655 119.299549,266.329655 C147.394549,266.329655 175.489549,266.327655 203.584549,266.322655 C216.679549,266.320655 224.833549,258.205655 224.838549,245.141655 C224.855549,206.468655 224.844549,167.795655 224.847549,129.122655 C224.847549,128.057655 224.789549,126.978655 224.930549,125.928655 C225.359549,122.724655 228.110549,120.357655 231.281549,120.357655 C231.306549,120.357655 231.331549,120.357655 231.356549,120.357655 C234.584549,120.396655 237.238549,122.817655 237.616549,126.087655 C237.682549,126.663655 237.703549,127.248655 237.703549,127.828655 C237.683549,168.149655 237.768549,208.469655 237.582549,248.789655 C237.509549,264.753655 223.393549,278.931655 207.376549,279.057655 C195.352549,279.152655 183.324549,279.180655 171.298549,279.180655 C154.053549,279.180655 136.810549,279.122655 119.565549,279.122655 C119.481549,279.122655 119.396549,279.122655 119.313549,279.122655 C102.272549,279.122655 85.2325492,279.180655 68.1915492,279.180655 C56.2395492,279.180655 44.2875492,279.151655 32.3355492,279.055655 C16.1595492,278.925655 2.15554915,264.433655 2.11954915,248.148655 C2.02654915,206.180655 2.07654915,164.211655 2.07154915,122.243655 C2.06954915,107.026655 2.32354915,91.8036547 2.00754915,76.5936547 C1.62454915,58.1816547 16.8535492,43.4606547 35.0015492,43.4606547 L35.0015492,43.4606547 Z" id="Fill-6" fill="#E30613" mask="url(#mask-2)"></path>
                <path d="M169.773549,128.993655 C163.956549,123.130655 158.167549,117.297655 152.311549,111.397655 C149.526549,119.786655 146.672549,128.385655 143.582549,137.694655 C152.923549,134.591655 161.524549,131.733655 169.773549,128.993655 Z M182.269549,121.618655 C209.888549,94.0086547 237.459549,66.4466547 264.680549,39.2336547 C257.169549,31.7216547 249.396549,23.9476547 242.029549,16.5806547 C214.662549,43.9476547 187.099549,71.5106547 159.653549,98.9576547 C167.124549,106.442655 174.846549,114.179655 182.269549,121.618655 Z M133.684549,154.529655 C129.240549,154.236655 125.390549,150.811655 127.381549,145.021655 C130.581549,135.712655 133.609549,126.343655 136.707549,116.999655 C138.774549,110.766655 140.730549,104.493655 142.961549,98.3206547 C143.658549,96.3936547 144.792549,94.4356547 146.229549,92.9926547 C176.039549,63.0656547 205.920549,33.2096547 235.793549,3.34565471 C240.243549,-1.10334529 243.501549,-1.11234529 247.935549,3.30165471 C257.685549,13.0076547 267.402549,22.6926547 277.974549,33.2746547 C282.428549,37.7286547 282.402549,40.8766547 277.888549,45.3936547 C248.025549,75.2676547 218.169549,105.149655 188.252549,134.969655 C186.868549,136.348655 185.049549,137.546655 183.209549,138.172655 C167.855549,143.393655 152.450549,148.463655 137.057549,153.566655 C135.868549,153.960655 134.647549,154.256655 133.684549,154.529655 L133.684549,154.529655 Z" id="Fill-8" fill="#E30613" mask="url(#mask-2)"></path>
            </g>
        </g>
    </g>
</svg>