<?xml version="1.0" encoding="UTF-8"?>
<svg width="39px" height="54px" viewBox="0 0 39 54" version="1.1" xmlns="http://www.w3.org/2000/svg" xmlns:xlink="http://www.w3.org/1999/xlink">
    <title>Group</title>
    <defs>
        <polygon id="path-1" points="7.10542736e-15 53.99 38.174 53.99 38.174 0 7.10542736e-15 0"></polygon>
    </defs>
    <g id="Page-1" stroke="none" stroke-width="1" fill="none" fill-rule="evenodd">
        <g id="Group">
            <g id="Group-105">
                <path d="M23.4368,43.8645 C24.0928,44.5205 24.0928,45.6445 23.4368,46.2995 L22.0788,47.6575 C21.4228,48.3135 20.2998,48.3135 19.6438,47.6575 L13.6968,41.6635 C13.0408,41.0085 13.0408,39.8845 13.6968,39.2285 L15.0548,37.8705 C15.7098,37.2155 16.8338,37.2155 17.4898,37.8705 L23.4368,43.8645 Z" id="Fill-99" fill="#4D5558"></path>
                <path d="M28.6345,33.5155 C29.2905,32.8605 30.4145,32.8605 31.0695,33.5155 L32.4275,34.8735 C33.0835,35.5295 33.0835,36.6535 32.4275,37.3085 L22.1255,47.5635 C21.4705,48.2195 20.3465,48.2195 19.6905,47.5635 L18.3325,46.2055 C17.6775,45.5505 17.6775,44.4265 18.3325,43.7705 L28.6345,33.5155 Z" id="Fill-101" fill="#4D5558"></path>
                <mask id="mask-2" fill="white">
                    <use xlink:href="#path-1"></use>
                </mask>
                <g id="Clip-104"></g>
                <path d="M0.943,52.657 L37.232,52.657 L37.232,1.333 L0.943,1.333 L0.943,52.657 Z M3.603,49.997 L34.572,49.997 L34.572,3.993 L3.603,3.993 L3.603,49.997 Z" id="Fill-103" fill="#4D5558" mask="url(#mask-2)"></path>
            </g>
            <path d="M6.3277,11.5647 L31.8467,11.5647 M6.3277,21.9387 L31.8467,21.9387 M6.3277,32.3127 L20.0827,32.3127" id="Stroke-106" stroke="#4D5558" stroke-width="2.66"></path>
        </g>
    </g>
</svg>