<?xml version="1.0" encoding="UTF-8"?>
<svg width="172px" height="167px" viewBox="0 0 172 167" version="1.1" xmlns="http://www.w3.org/2000/svg" xmlns:xlink="http://www.w3.org/1999/xlink">
    <title>Group</title>
    <g id="Page-1" stroke="none" stroke-width="1" fill="none" fill-rule="evenodd">
        <g id="Group" transform="translate(0.000000, -0.000000)">
            <path d="M91.9571164,104.249388 C94.1971164,101.682388 95.4921164,99.7123883 97.2321164,98.2833883 C106.083116,91.0123883 106.308116,90.2863883 100.778116,79.8813883 C102.720116,80.4153883 104.256116,80.3793883 105.045116,81.1283883 C110.920116,86.7053883 116.879116,92.2253883 122.343116,98.1923883 C126.292116,102.505388 129.468116,105.294388 136.448116,103.694388 C155.555116,99.3123883 174.208116,117.469388 171.309116,136.737388 C171.115116,138.024388 170.214116,139.587388 169.161116,140.216388 C168.564116,140.572388 166.763116,139.523388 165.891116,138.698388 C162.386116,135.381388 159.218116,131.682388 155.531116,128.595388 C154.023116,127.332388 151.377116,126.461388 149.479116,126.781388 C135.902116,129.073388 134.371116,130.815388 133.007116,144.662388 C132.887116,145.877388 133.642116,147.490388 134.513116,148.436388 C137.669116,151.863388 141.131116,155.006388 144.298116,158.423388 C145.457116,159.674388 146.114116,161.390388 147.000116,162.894388 C145.236116,163.578388 143.515116,164.705388 141.702116,164.879388 C121.979116,166.772388 105.719116,147.522388 110.540116,127.801388 C111.412116,124.233388 110.922116,121.974388 108.215116,119.569388 C102.754116,114.719388 97.5631164,109.566388 91.9571164,104.249388" id="Fill-1" fill="#10417C"></path>
            <path d="M38.5211164,61.5653883 C18.8931164,61.6133883 4.96011645,46.2603883 6.95711645,28.4833883 C7.10811645,27.1393883 8.03911645,25.8833883 8.60711645,24.5863883 C9.86211645,25.2243883 11.2391164,25.7033883 12.3401164,26.5423883 C13.6531164,27.5443883 14.7321164,28.8533883 15.9101164,30.0313883 C25.6321164,39.7493883 25.6401164,39.7763883 38.9781164,35.9073883 C40.1221164,35.5753883 41.7391164,34.7513883 41.9971164,33.8353883 C43.3441164,29.0353883 44.4621164,24.1573883 45.3131164,19.2453883 C45.4781164,18.2933883 44.2751164,16.9113883 43.4101164,16.0073883 C40.0711164,12.5163883 36.5451164,9.20238827 33.2431164,5.67738827 C32.3141164,4.68638827 31.9121164,3.20238827 31.2691164,1.94438827 C32.5511164,1.34538827 33.7861164,0.363388274 35.1211164,0.203388274 C54.6471164,-2.12561173 71.7231164,15.9223883 67.6671164,35.1173883 C66.5531164,40.3893883 67.4351164,43.6483883 71.3991164,47.0763883 C76.4271164,51.4233883 80.9451164,56.3723883 85.5431164,61.1943883 C86.3821164,62.0743883 86.5561164,63.5883883 87.0361164,64.8093883 C85.8021164,64.5583883 84.3431164,64.6463883 83.3721164,64.0003883 C78.3471164,60.6613883 74.0101164,61.8923883 69.5811164,68.1303883 C64.9621164,74.6343883 63.1941164,75.0223883 57.9521164,69.0453883 C52.1761164,62.4583883 46.4651164,56.8903883 38.5211164,61.5653883" id="Fill-3" fill="#10417C"></path>
            <path d="M29.6451164,162.891388 C25.3371164,162.891388 21.7291164,159.894388 18.4731164,156.655388 C17.6691164,155.857388 16.8611164,155.061388 16.0531164,154.265388 C13.4311164,151.684388 10.7201164,149.015388 8.16111645,146.223388 C2.57211645,140.124388 2.57311645,134.150388 8.16111645,128.464388 C14.8051164,121.705388 21.6431164,114.938388 28.2571164,108.394388 C31.7131164,104.973388 35.1691164,101.553388 38.6121164,98.1203883 C41.2491164,95.4923883 43.8711164,92.8493883 46.4931164,90.2063883 C51.4791164,85.1783883 56.6371164,79.9783883 61.8301164,74.9603883 C62.8761164,73.9493883 63.9421164,73.0493883 64.9711164,72.1793883 C67.0101164,70.4573883 68.9351164,68.8313883 70.2881164,66.6583883 C71.2121164,65.1743883 73.6651164,61.2323883 77.9121164,61.2323883 C80.9001164,61.2323883 83.3561164,63.1673883 85.5651164,65.2573883 C85.7551164,65.4373883 85.9471164,65.6153883 86.1541164,65.8063883 C88.0301164,63.5273883 89.9701164,61.1743883 92.1041164,58.9833883 C97.4771164,53.4643883 103.019116,47.9503883 108.380116,42.6183883 C110.492116,40.5163883 112.605116,38.4143883 114.713116,36.3073883 L115.540116,35.4903883 C118.266116,32.8083883 119.805116,31.1593883 119.712116,28.4643883 C119.583116,24.6483883 123.303116,21.7833883 124.049116,21.2483883 C126.995116,19.1353883 130.025116,17.0803883 132.955116,15.0933883 C135.848116,13.1303883 138.842116,11.1013883 141.708116,9.04438827 C143.665116,7.64038827 145.509116,6.95738827 147.343116,6.95738827 C148.818116,6.95738827 151.613116,7.45638827 153.753116,10.7983883 C153.932116,11.0643883 154.707116,11.6393883 155.219116,12.0193883 C157.206116,13.4943883 162.483116,17.4133883 158.242116,24.0793883 C154.556116,29.8743883 150.406116,35.9633883 145.180116,43.2383883 C143.918116,44.9973883 142.094116,45.8143883 140.627116,46.4713883 C140.307116,46.6143883 139.988116,46.7553883 139.691116,46.9073883 C138.590116,47.4723883 137.479116,47.9193883 136.405116,48.3513883 C134.719116,49.0293883 133.126116,49.6703883 132.264116,50.5143883 C123.955116,58.6593883 115.980116,66.8233883 107.537116,75.4673883 C105.605116,77.4443883 103.668116,79.4283883 101.719116,81.4193883 C105.080116,84.9903883 105.386116,88.2263883 105.029116,90.3413883 C104.649116,92.5983883 103.139116,95.8013883 98.1031164,98.2483883 C97.3841164,98.5983883 96.4811164,99.6213883 95.6091164,100.611388 C95.2991164,100.963388 94.9901164,101.314388 94.6781164,101.650388 C94.2701164,102.092388 93.8531164,102.671388 93.4121164,103.283388 C92.7941164,104.141388 92.0941164,105.112388 91.1961164,106.017388 C74.3711164,122.972388 57.4131164,140.007388 40.7941164,156.649388 C37.5561164,159.891388 33.9651164,162.891388 29.6451164,162.891388" id="Fill-4" fill="#10417C"></path>
            <path d="M147.343116,2.95738827 L147.343116,2.95738827 C144.679116,2.95738827 141.999116,3.91238827 139.375116,5.79438827 C136.549116,7.82238827 133.576116,9.83838827 130.701116,11.7883883 C127.752116,13.7883883 124.703116,15.8563883 121.717116,17.9983883 C120.259116,19.0433883 115.520116,22.8973883 115.714116,28.6003883 C115.745116,29.4913883 115.243116,30.1713883 112.734116,32.6393883 C112.451116,32.9183883 112.167116,33.1973883 111.886116,33.4783883 C109.792116,35.5713883 107.693116,37.6593883 105.594116,39.7473883 C100.212116,45.1013883 94.6461164,50.6383883 89.2381164,56.1923883 C87.9881164,57.4753883 86.8181164,58.7923883 85.6941164,60.1103883 C83.5261164,58.4903883 80.9801164,57.2323883 77.9121164,57.2323883 C71.4441164,57.2323883 68.0181164,62.7353883 66.8921164,64.5443883 C65.8721164,66.1823883 64.3361164,67.4803883 62.3901164,69.1243883 C61.3101164,70.0363883 60.1931164,70.9803883 59.0511164,72.0833883 C53.8191164,77.1383883 48.6401164,82.3603883 43.6311164,87.4103883 C41.0221164,90.0413883 38.4121164,92.6723883 35.7881164,95.2883883 C32.3571164,98.7083883 28.9131164,102.116388 25.4691164,105.524388 C18.8371164,112.087388 11.9801164,118.873388 5.30911645,125.659388 C-1.73588355,132.826388 -1.77088355,141.306388 5.21211645,148.925388 C7.83811645,151.790388 10.5831164,154.493388 13.2381164,157.107388 C14.0441164,157.901388 14.8501164,158.695388 15.6521164,159.492388 C19.5171164,163.335388 23.8861164,166.890388 29.6451164,166.890388 C35.4231164,166.890388 39.7781164,163.326388 43.6241164,159.475388 C60.2991164,142.777388 77.2601164,125.739388 94.0361164,108.834388 C95.1551164,107.707388 95.9871164,106.552388 96.6561164,105.623388 C97.0241164,105.112388 97.3721164,104.630388 97.6171164,104.365388 C97.9481164,104.006388 98.2781164,103.633388 98.6091164,103.257388 C99.0451164,102.764388 99.6891164,102.032388 100.008116,101.770388 C106.452116,98.5833883 108.442116,94.1633883 108.974116,91.0053883 C109.371116,88.6423883 109.234116,85.3423883 107.005116,81.7363883 C108.134116,80.5803883 109.260116,79.4273883 110.385116,78.2763883 C118.817116,69.6433883 126.782116,61.4893883 135.065116,53.3703883 C135.443116,53.0493883 136.920116,52.4553883 137.897116,52.0623883 C139.001116,51.6183883 140.252116,51.1153883 141.516116,50.4673883 C141.752116,50.3453883 142.007116,50.2363883 142.262116,50.1213883 C143.964116,49.3593883 146.536116,48.2073883 148.428116,45.5723883 C153.694116,38.2423883 157.885116,32.0943883 161.618116,26.2263883 C165.040116,20.8453883 163.725116,16.4153883 162.636116,14.2543883 C161.261116,11.5233883 159.060116,9.88938827 157.603116,8.80738827 C157.361116,8.62838827 157.051116,8.39738827 156.855116,8.24038827 C153.718116,3.65538827 149.573116,2.95738827 147.343116,2.95738827 Z M147.343116,10.9573883 C148.477116,10.9573883 149.495116,11.5663883 150.383116,12.9543883 C152.192116,15.7803883 158.108116,16.8373883 154.867116,21.9323883 C150.760116,28.3893883 146.396116,34.6893883 141.931116,40.9053883 C141.083116,42.0863883 139.282116,42.6223883 137.866116,43.3483883 C135.053116,44.7903883 131.610116,45.5553883 129.465116,47.6573883 C118.202116,58.6973883 107.263116,70.0673883 95.9091164,81.6313883 C96.5111164,82.1403883 97.5771164,82.9203883 98.4991164,83.8433883 C102.726116,88.0753883 101.799116,92.0053883 96.3561164,94.6513883 C94.5471164,95.5303883 93.1711164,97.3893883 91.7421164,98.9343883 C90.5141164,100.263388 89.6281164,101.919388 88.3581164,103.199388 C71.5861164,120.100388 54.7881164,136.974388 37.9631164,153.822388 C34.5861164,157.204388 32.1161164,158.890388 29.6451164,158.890388 C27.1681164,158.890388 24.6901164,157.196388 21.2931164,153.819388 C17.8701164,150.415388 14.3701164,147.077388 11.1101164,143.520388 C7.01311645,139.050388 6.87911645,135.474388 11.0141164,131.267388 C21.0491164,121.059388 31.2971164,111.060388 41.4361164,100.954388 C49.1641164,93.2513883 56.7641164,85.4173883 64.6091164,77.8373883 C67.6811164,74.8693883 71.2431164,72.6923883 73.6841164,68.7723883 C75.1971164,66.3413883 76.4821164,65.2323883 77.9121164,65.2323883 C79.2981164,65.2323883 80.8201164,66.2733883 82.8161164,68.1623883 C83.6511164,68.9533883 84.5131164,69.7153883 86.5551164,71.5783883 C89.3831164,68.2583883 91.9891164,64.8343883 94.9691164,61.7733883 C102.402116,54.1393883 110.004116,46.6693883 117.541116,39.1363883 C120.574116,36.1053883 123.881116,33.3523883 123.710116,28.3273883 C123.667116,27.0623883 125.155116,25.3773883 126.379116,24.4983883 C132.193116,20.3293883 138.227116,16.4653883 144.039116,12.2943883 C145.226116,11.4433883 146.331116,10.9573883 147.343116,10.9573883 L147.343116,10.9573883 Z" id="Fill-5" fill="#FFFFFE"></path>
        </g>
    </g>
</svg>