<?xml version="1.0" encoding="UTF-8"?>
<svg width="264px" height="264px" viewBox="0 0 264 264" version="1.1" xmlns="http://www.w3.org/2000/svg" xmlns:xlink="http://www.w3.org/1999/xlink">
    <title>Group 4</title>
    <defs>
        <polygon id="path-1" points="0 0 263 0 263 263 0 263"></polygon>
    </defs>
    <g id="Page-1" stroke="none" stroke-width="1" fill="none" fill-rule="evenodd">
        <g id="icone-2" transform="translate(-418.000000, -331.000000)">
            <g id="Group-4" transform="translate(418.752000, 331.940000)">
                <mask id="mask-2" fill="white">
                    <use xlink:href="#path-1"></use>
                </mask>
                <g id="Clip-2"></g>
                <path d="M46.615,52.597 C55.328,55.939 63.54,59.089 71.972,62.323 C76.716,48.017 82.747,34.905 91.344,23.043 C74.219,29.202 59.616,38.933 46.615,52.597 Z M91.319,240.237 C82.619,228.378 76.75,215.207 71.934,200.999 C63.436,204.284 55.253,207.448 46.626,210.783 C59.702,224.438 74.275,234.195 91.319,240.237 Z M191.162,201.145 C188.137,208.331 185.651,215.146 182.441,221.602 C179.242,228.036 175.316,234.109 171.653,240.435 C188.558,234.151 203.172,224.408 216.167,210.741 C207.42,207.384 199.205,204.231 191.162,201.145 Z M190.612,61.766 C197.41,60.446 212.733,54.395 215.432,51.999 C206.178,40.868 183.015,25.632 171.134,23.029 C180.053,34.931 186.047,48.018 190.612,61.766 Z M139.258,17.175 C139.258,34.837 139.258,52.145 139.258,69.647 C151.527,69.162 163.523,68.023 175.657,65.492 C173.818,60.902 172.252,56.574 170.372,52.386 C165.617,41.793 159.769,31.912 150.925,24.126 C147.522,21.131 143.793,18.643 139.258,17.175 Z M139.257,193.239 C139.257,211.419 139.257,228.702 139.257,246.034 C152.945,242.285 173.353,214.75 175.172,197.189 C163.271,195.88 151.365,194.571 139.257,193.239 Z M87.085,197.25 C90.828,208.263 95.103,218 101.139,226.881 C105.741,233.652 111.106,239.699 118.316,243.831 C119.937,244.76 121.709,245.425 123.51,246.257 C123.51,228.486 123.51,211.181 123.51,193.23 C111.352,194.572 99.443,195.886 87.085,197.25 Z M87.08,65.533 C99.526,67.939 111.475,69.308 123.511,69.58 C123.511,51.919 123.511,34.64 123.511,16.787 C102.683,26.841 94.784,45.842 87.08,65.533 Z M179.88,81.145 C166.242,82.682 152.81,84.196 139.215,85.728 C139.215,98.186 139.215,110.962 139.215,123.828 C154.597,123.828 169.849,123.828 185.341,123.828 C184.816,109.25 183.158,94.996 179.88,81.145 Z M185.456,139.553 C169.713,139.553 154.463,139.553 139.286,139.553 C139.286,152.51 139.286,165.28 139.286,178.109 C139.894,178.186 140.309,178.274 140.726,178.285 C153.215,178.617 165.582,180.024 177.833,182.458 C179.27,182.743 179.978,182.414 180.233,180.779 C181.494,172.694 183.073,164.655 184.162,156.55 C184.909,150.987 185.038,145.341 185.456,139.553 Z M123.595,139.545 C108.118,139.545 92.866,139.545 77.503,139.545 C77.503,140.651 77.457,141.585 77.51,142.513 C78.224,155.14 79.659,167.667 82.335,180.05 C82.864,182.498 83.796,182.63 85.961,182.306 C94.477,181.034 103.02,179.93 111.572,178.922 C115.531,178.455 119.533,178.35 123.595,178.076 C123.595,165.166 123.595,152.448 123.595,139.545 Z M123.518,123.866 C123.518,110.886 123.518,98.114 123.518,85.289 C123.034,85.199 122.707,85.094 122.378,85.084 C109.806,84.725 97.35,83.347 85.014,80.888 C83.674,80.621 82.8,80.771 82.55,82.492 C81.102,92.445 79.445,102.368 78.076,112.33 C77.559,116.093 77.622,119.935 77.414,123.866 C92.946,123.866 108.136,123.866 123.518,123.866 Z M195.702,186.181 C205.462,190.058 215.718,194.131 226.098,198.253 C236.335,186.981 248.832,151.446 246.588,139.525 C231.414,139.525 216.238,139.525 201.623,139.525 C199.624,155.279 197.653,170.81 195.702,186.181 Z M36.508,198.323 C47.152,194.102 57.406,190.036 67.806,185.912 C64.262,170.825 62.404,155.274 61.911,139.497 C46.445,139.497 31.259,139.497 15.754,139.497 C17.274,161.27 24.265,180.874 36.508,198.323 Z M247.027,123.846 C245.466,102.021 238.504,82.366 226.252,65.028 C215.608,69.25 205.358,73.316 194.976,77.435 C198.496,92.543 200.372,108.088 200.862,123.846 C216.338,123.846 231.523,123.846 247.027,123.846 Z M67.797,77.424 C57.262,73.243 47.006,69.172 36.518,65.01 C24.275,82.425 17.279,102.038 15.754,123.793 C31.267,123.793 46.511,123.793 61.945,123.793 C62.37,107.975 64.3,92.51 67.797,77.424 Z M121.636,0.285 C128.137,0.285 134.638,0.285 141.139,0.285 C145.17,0.848 149.219,1.3 153.227,1.993 C179.219,6.483 201.961,17.629 221.176,35.71 C242.276,55.565 255.583,79.753 260.711,108.332 C261.55,113.006 262.094,117.732 262.775,122.434 C262.775,128.593 262.775,134.752 262.775,140.911 C262.223,145.04 261.804,149.192 261.098,153.295 C256.608,179.407 245.445,202.273 227.253,221.557 C207.358,242.646 183.15,255.968 154.522,261.029 C149.915,261.844 145.259,262.39 140.626,263.06 C134.467,263.06 128.308,263.06 122.149,263.06 C119.111,262.675 116.066,262.342 113.037,261.895 C89.205,258.376 67.716,249.35 49.034,234.081 C22.83,212.663 6.809,185.271 1.508,151.743 C0.966,148.31 0.501,144.864 -5.68434189e-14,141.424 C-5.68434189e-14,134.923 -5.68434189e-14,128.422 -5.68434189e-14,121.921 C0.562,117.89 1.009,113.84 1.704,109.832 C6.257,83.571 17.562,60.619 35.952,41.317 C56.581,19.665 81.702,6.382 111.327,1.79 C114.759,1.259 118.199,0.785 121.636,0.285 L121.636,0.285 Z" id="Fill-1" fill="#4D5558" mask="url(#mask-2)"></path>
            </g>
        </g>
    </g>
</svg>