<svg height="88" viewBox="0 0 313 88" width="313" xmlns="http://www.w3.org/2000/svg" xmlns:xlink="http://www.w3.org/1999/xlink"><mask id="a" fill="#fff"><path d="m0 0h57.8797v87.3389h-57.8797z" fill="#fff" fill-rule="evenodd"/></mask><g fill="none" fill-rule="evenodd"><path d="m107.1481 40.7564c-.163-4.132-.217-9.025-.217-14.734h-.164c-1.141 4.84-2.663 10.331-3.859 14.354l-3.643 12.776h-7.665l-3.046-12.776c-.978-3.915-2.065-9.351-2.935-14.354h-.109c-.217 5.166-.38 10.602-.543 14.734l-.598 13.157h-9.025l2.283-36.644h13.211l2.392 9.896c1.033 4.023 2.121 8.916 2.882 13.373h.163c1.033-4.457 2.229-9.623 3.316-13.483l2.773-9.786h12.886l1.848 36.644h-9.515z" fill="#5c6062"/><path d="m145.038 39.1253h-13.157v6.742h14.734v8.046h-24.574v-36.643h23.812v8.046h-13.972v5.872h13.157z" fill="#5c6062"/><path d="m179.4495 52.935c-1.36.706-4.839 1.522-9.188 1.522-13.702 0-19.736-8.536-19.736-18.267 0-12.885 9.461-19.463 20.388-19.463 4.186 0 7.611.815 9.134 1.576l-1.903 7.774c-1.577-.652-3.86-1.305-6.797-1.305-5.599 0-10.492 3.317-10.492 10.765 0 6.633 3.969 10.765 10.71 10.765 2.338 0 5.002-.435 6.524-1.033z" fill="#5c6062"/><path d="m210.3819 52.935c-1.36.706-4.84 1.522-9.188 1.522-13.702 0-19.736-8.536-19.736-18.267 0-12.885 9.46-19.463 20.388-19.463 4.186 0 7.611.815 9.134 1.576l-1.903 7.774c-1.577-.652-3.86-1.305-6.797-1.305-5.599 0-10.492 3.317-10.492 10.765 0 6.633 3.969 10.765 10.71 10.765 2.338 0 5.002-.435 6.524-1.033z" fill="#5c6062"/><path d="m215.7063 17.2699h23.541v8.047h-13.701v6.741h12.886v7.938h-12.886v13.918h-9.84z" fill="#5c6062"/><path d="m261.9169 46.737c4.729 0 7.502-4.567 7.502-11.2 0-6.306-2.827-11.091-7.611-11.091-4.731 0-7.612 4.785-7.612 11.146-.054 6.578 2.881 11.145 7.612 11.145zm-.49 7.774c-11.363 0-17.615-8.535-17.615-18.702 0-10.655 6.959-19.137 18.213-19.137 11.797 0 17.778 8.753 17.778 18.539 0 11.798-7.067 19.3-18.322 19.3z" fill="#5c6062"/><path d="m292.5758 33.091h2.555c3.697 0 5.818-1.795 5.818-4.513s-1.794-4.295-5.056-4.295c-1.849 0-2.828.109-3.317.218zm-9.732-15.278c2.773-.435 6.96-.815 11.853-.815 5.599 0 9.623.761 12.395 2.881 2.338 1.795 3.589 4.404 3.589 7.939 0 4.566-3.426 7.774-6.253 8.861v.163c2.392 1.087 3.752 3.426 4.676 6.578 1.087 3.752 2.283 9.08 2.99 10.493h-10.004c-.543-1.087-1.522-3.914-2.555-8.481-.978-4.349-2.338-5.274-5.382-5.274h-1.577v13.755h-9.732z" fill="#5c6062"/><g fill="#024189"><path d="m82.6638 72.1748.588-3.988c.158-1.047.373-2.366.646-3.772h-.043c-.531 1.248-1.134 2.582-1.664 3.643l-1.98 3.959h-1.606l-.344-3.916c-.086-1.061-.158-2.395-.216-3.686h-.028c-.273 1.277-.56 2.739-.804 3.772l-.961 3.988h-1.893l2.424-9.667h2.769l.301 3.686c.057.904.158 1.993.172 3.069h.057c.374-1.076.89-2.209 1.305-3.083l1.793-3.672h2.798l-1.306 9.667z"/><path d="m92.6483 68.0582h-3.428l-.445 2.352h3.859l-.33 1.765h-5.938l1.836-9.668h5.723l-.345 1.764h-3.643l-.401 2.051h3.457z"/><path d="m101.0262 71.9019c-.516.23-1.377.417-2.539.417-2.567 0-4.274-1.55-4.274-4.103 0-2.18.975-3.858 2.438-4.834 1.005-.689 2.18-1.018 3.543-1.018 1.047 0 1.836.244 2.123.402l-.574 1.678c-.272-.144-.918-.316-1.749-.316-.833 0-1.621.258-2.209.746-.804.66-1.335 1.764-1.335 3.113 0 1.534.876 2.567 2.568 2.567.688 0 1.362-.115 1.836-.315z"/><path d="m106.048 62.5075-.718 3.757h3.5l.718-3.757h2.079l-1.836 9.667h-2.065l.76-4.074h-3.514l-.76 4.074h-2.066l1.836-9.667z"/><path d="m117.0647 68.0869-.187-2.08c-.043-.531-.086-1.305-.129-1.894h-.043c-.244.589-.516 1.334-.774 1.894l-.946 2.08zm-2.696 1.578-1.134 2.51h-2.209l4.719-9.667h2.654l1.118 9.667h-2.165l-.201-2.51z"/><path d="m120.5658 72.1748 1.835-9.667h2.425l1.277 3.686c.387 1.233.645 2.238.874 3.299h.043c.044-.99.187-2.052.445-3.471l.66-3.514h1.936l-1.836 9.667h-2.137l-1.348-3.859c-.431-1.319-.689-2.194-.947-3.37h-.043c-.1.947-.33 2.309-.617 3.844l-.645 3.385z"/><path d="m133.9783 62.5075-1.836 9.667h-2.065l1.835-9.667z"/><path d="m141.2938 71.9019c-.516.23-1.377.417-2.539.417-2.567 0-4.274-1.55-4.274-4.103 0-2.18.975-3.858 2.438-4.834 1.004-.689 2.18-1.018 3.543-1.018 1.046 0 1.835.244 2.122.402l-.573 1.678c-.272-.144-.918-.316-1.75-.316s-1.621.258-2.209.746c-.803.66-1.334 1.764-1.334 3.113 0 1.534.875 2.567 2.568 2.567.688 0 1.362-.115 1.836-.315z"/><path d="m147.8777 68.0869-.186-2.08c-.043-.531-.086-1.305-.13-1.894h-.043c-.243.589-.515 1.334-.774 1.894l-.946 2.08zm-2.696 1.578-1.134 2.51h-2.208l4.719-9.667h2.653l1.119 9.667h-2.166l-.2-2.51z"/><path d="m153.2151 62.5075h2.066l-1.492 7.86h3.715l-.345 1.807h-5.78z"/><path d="m168.2478 71.9019c-.516.23-1.376.417-2.538.417-2.568 0-4.275-1.55-4.275-4.103 0-2.18.976-3.858 2.439-4.834 1.004-.689 2.18-1.018 3.543-1.018 1.047 0 1.836.244 2.122.402l-.573 1.678c-.273-.144-.918-.316-1.75-.316-.831 0-1.62.258-2.209.746-.803.66-1.334 1.764-1.334 3.113 0 1.534.875 2.567 2.567 2.567.689 0 1.363-.115 1.837-.315z"/><path d="m173.6577 70.6116c.616 0 1.176-.259 1.62-.703.761-.761 1.177-2.353 1.177-3.471 0-1.205-.431-2.367-1.951-2.367-.646 0-1.22.273-1.664.731-.774.761-1.205 2.267-1.205 3.428 0 1.363.617 2.382 2.009 2.382zm-.302 1.721c-2.51 0-3.915-1.778-3.915-4.03 0-1.751.645-3.486 1.778-4.576.903-.861 2.137-1.377 3.529-1.377 2.553 0 3.902 1.721 3.902 4.03 0 1.765-.618 3.486-1.722 4.562-.904.875-2.123 1.391-3.557 1.391z"/><path d="m187.2136 72.1748.587-3.988c.158-1.047.373-2.366.646-3.772h-.043c-.53 1.248-1.133 2.582-1.663 3.643l-1.98 3.959h-1.607l-.343-3.916c-.087-1.061-.158-2.395-.216-3.686h-.029c-.273 1.277-.559 2.739-.803 3.772l-.962 3.988h-1.892l2.424-9.667h2.768l.301 3.686c.058.904.158 1.993.172 3.069h.058c.373-1.076.888-2.209 1.304-3.083l1.794-3.672h2.796l-1.304 9.667z"/><path d="m193.913 67.0111c.215.043.445.072.803.072 1.234 0 2.051-.803 2.051-1.765 0-.932-.674-1.234-1.463-1.234-.387 0-.674.029-.846.058zm-1.205-4.332c.631-.158 1.592-.244 2.525-.244.875 0 1.864.144 2.567.646.66.43 1.047 1.119 1.047 2.051 0 1.219-.559 2.151-1.305 2.725-.789.617-1.923.904-3.098.904-.345 0-.631-.043-.847-.058l-.659 3.472h-2.022z"/><path d="m203.5677 70.6116c.616 0 1.176-.259 1.62-.703.761-.761 1.177-2.353 1.177-3.471 0-1.205-.43-2.367-1.951-2.367-.646 0-1.219.273-1.664.731-.774.761-1.205 2.267-1.205 3.428 0 1.363.617 2.382 2.009 2.382zm-.302 1.721c-2.51 0-3.915-1.778-3.915-4.03 0-1.751.645-3.486 1.778-4.576.904-.861 2.137-1.377 3.528-1.377 2.554 0 3.903 1.721 3.903 4.03 0 1.765-.617 3.486-1.722 4.562-.903.875-2.123 1.391-3.557 1.391z"/><path d="m209.0484 72.1748 1.835-9.667h2.424l1.278 3.686c.386 1.233.644 2.238.874 3.299h.043c.043-.99.186-2.052.445-3.471l.659-3.514h1.937l-1.836 9.667h-2.137l-1.349-3.859c-.43-1.319-.688-2.194-.946-3.37h-.044c-.099.947-.329 2.309-.616 3.844l-.646 3.385z"/><path d="m224.8838 68.0582h-3.428l-.445 2.352h3.859l-.33 1.765h-5.938l1.836-9.668h5.723l-.344 1.764h-3.644l-.401 2.051h3.456z"/><path d="m226.0186 72.1748 1.836-9.667h2.424l1.277 3.686c.387 1.233.645 2.238.874 3.299h.044c.043-.99.186-2.052.445-3.471l.659-3.514h1.936l-1.835 9.667h-2.138l-1.349-3.859c-.43-1.319-.688-2.194-.945-3.37h-.044c-.1.947-.33 2.309-.616 3.844l-.646 3.385z"/><path d="m238.8135 64.3147h-2.553l.359-1.807h7.186l-.345 1.807h-2.582l-1.491 7.86h-2.066z"/><path d="m243.6336 69.9369c.573.33 1.377.602 2.28.602.789 0 1.521-.372 1.521-1.118 0-.56-.416-.904-1.306-1.377-1.017-.545-1.993-1.291-1.993-2.539 0-1.95 1.693-3.141 3.801-3.141 1.162 0 1.851.258 2.267.473l-.647 1.721c-.315-.172-.989-.43-1.792-.416-.961 0-1.463.474-1.463 1.005 0 .559.588.903 1.405 1.362 1.177.617 1.908 1.391 1.908 2.554 0 2.151-1.778 3.256-3.916 3.256-1.334-.015-2.309-.359-2.754-.689z"/><path d="m253.5888 69.9369c.574.33 1.377.602 2.281.602.789 0 1.52-.372 1.52-1.118 0-.56-.415-.904-1.305-1.377-1.018-.545-1.994-1.291-1.994-2.539 0-1.95 1.693-3.141 3.801-3.141 1.163 0 1.851.258 2.267.473l-.646 1.721c-.316-.172-.99-.43-1.792-.416-.962 0-1.464.474-1.464 1.005 0 .559.588.903 1.406 1.362 1.176.617 1.907 1.391 1.907 2.554 0 2.151-1.778 3.256-3.915 3.256-1.334-.015-2.309-.359-2.755-.689z"/><path d="m264.3337 62.5075-1.048 5.565c-.072.33-.114.717-.114 1.133 0 .789.487 1.391 1.405 1.391 1.09 0 1.793-.716 2.138-2.51l1.06-5.579h2.067l-1.048 5.493c-.559 2.927-1.836 4.332-4.475 4.332-1.993.014-3.213-1.033-3.213-3.084 0-.416.058-.889.144-1.348l1.017-5.393z"/><path d="m272.8686 67.0111c.216.043.445.072.804.072 1.234 0 2.051-.803 2.051-1.765 0-.932-.674-1.234-1.463-1.234-.388 0-.674.029-.846.058zm-1.204-4.332c.631-.158 1.592-.244 2.524-.244.876 0 1.865.144 2.568.646.66.43 1.047 1.119 1.047 2.051 0 1.219-.56 2.151-1.306 2.725-.788.617-1.922.904-3.097.904-.345 0-.632-.043-.848-.058l-.659 3.472h-2.022z"/><path d="m280.9596 67.0111c.215.043.445.072.804.072 1.233 0 2.051-.803 2.051-1.765 0-.932-.674-1.234-1.463-1.234-.388 0-.675.029-.846.058zm-1.204-4.332c.63-.158 1.592-.244 2.524-.244.875 0 1.865.144 2.568.646.66.43 1.046 1.119 1.046 2.051 0 1.219-.559 2.151-1.305 2.725-.789.617-1.922.904-3.098.904-.345 0-.631-.043-.847-.058l-.66 3.472h-2.021z"/><path d="m287.8901 62.5075h2.065l-1.491 7.86h3.715l-.345 1.807h-5.78z"/><path d="m296.8992 62.5075-1.836 9.667h-2.066l1.835-9.667z"/><path d="m303.2535 68.0582h-3.428l-.445 2.352h3.859l-.33 1.765h-5.939l1.837-9.668h5.722l-.344 1.764h-3.643l-.401 2.051h3.456z"/><path d="m304.8179 69.9369c.574.33 1.377.602 2.28.602.789 0 1.521-.372 1.521-1.118 0-.56-.416-.904-1.305-1.377-1.018-.545-1.994-1.291-1.994-2.539 0-1.95 1.693-3.141 3.801-3.141 1.162 0 1.851.258 2.267.473l-.646 1.721c-.316-.172-.99-.43-1.792-.416-.962 0-1.464.474-1.464 1.005 0 .559.588.903 1.405 1.362 1.177.617 1.908 1.391 1.908 2.554 0 2.151-1.778 3.256-3.916 3.256-1.333-.015-2.308-.359-2.754-.689z"/><path d="m35.3987 37.1049-6.444-6.445-6.474 6.445 6.474 6.443zm-6.444 38.286 20.47-20.47v-44.731l-14.52 14.52 12.397 12.396-18.34 18.34h-.044l-18.34-18.34 12.397-12.396-14.52-14.52v44.731l20.47 20.47zm-.036 11.948-28.919-28.919v-58.42h10.195l18.744 18.743 18.746-18.743h10.195v58.42l-28.919 28.919z" mask="url(#a)"/></g></g></svg>