<?xml version="1.0" encoding="UTF-8"?>
<svg width="313px" height="88px" viewBox="0 0 313 88" version="1.1" xmlns="http://www.w3.org/2000/svg" xmlns:xlink="http://www.w3.org/1999/xlink">
    <title>Slice 1</title>
    <defs>
        <polygon id="path-1" points="0 1.13686838e-13 57.8797 1.13686838e-13 57.8797 87.3389 0 87.3389"></polygon>
    </defs>
    <g id="Page-1" stroke="none" stroke-width="1" fill="none" fill-rule="evenodd">
        <g id="Group-381">
            <path d="M107.1481,40.7564 C106.9851,36.6244 106.9311,31.7314 106.9311,26.0224 L106.7671,26.0224 C105.6261,30.8624 104.1041,36.3534 102.9081,40.3764 L99.2651,53.1524 L91.6001,53.1524 L88.5541,40.3764 C87.5761,36.4614 86.4891,31.0254 85.6191,26.0224 L85.5101,26.0224 C85.2931,31.1884 85.1301,36.6244 84.9671,40.7564 L84.3691,53.9134 L75.3441,53.9134 L77.6271,17.2694 L90.8381,17.2694 L93.2301,27.1654 C94.2631,31.1884 95.3511,36.0814 96.1121,40.5384 L96.2751,40.5384 C97.3081,36.0814 98.5041,30.9154 99.5911,27.0554 L102.3641,17.2694 L115.2501,17.2694 L117.0981,53.9134 L107.5831,53.9134 L107.1481,40.7564 Z" id="Fill-308" fill="#5C6062"></path>
            <polygon id="Fill-310" fill="#5C6062" points="145.038 39.1253 131.881 39.1253 131.881 45.8673 146.615 45.8673 146.615 53.9133 122.041 53.9133 122.041 17.2703 145.853 17.2703 145.853 25.3163 131.881 25.3163 131.881 31.1883 145.038 31.1883"></polygon>
            <path d="M179.4495,52.935 C178.0895,53.641 174.6105,54.457 170.2615,54.457 C156.5595,54.457 150.5255,45.921 150.5255,36.19 C150.5255,23.305 159.9865,16.727 170.9135,16.727 C175.0995,16.727 178.5245,17.542 180.0475,18.303 L178.1445,26.077 C176.5675,25.425 174.2845,24.772 171.3475,24.772 C165.7485,24.772 160.8555,28.089 160.8555,35.537 C160.8555,42.17 164.8245,46.302 171.5655,46.302 C173.9035,46.302 176.5675,45.867 178.0895,45.269 L179.4495,52.935 Z" id="Fill-312" fill="#5C6062"></path>
            <path d="M210.3819,52.935 C209.0219,53.641 205.5419,54.457 201.1939,54.457 C187.4919,54.457 181.4579,45.921 181.4579,36.19 C181.4579,23.305 190.9179,16.727 201.8459,16.727 C206.0319,16.727 209.4569,17.542 210.9799,18.303 L209.0769,26.077 C207.4999,25.425 205.2169,24.772 202.2799,24.772 C196.6809,24.772 191.7879,28.089 191.7879,35.537 C191.7879,42.17 195.7569,46.302 202.4979,46.302 C204.8359,46.302 207.4999,45.867 209.0219,45.269 L210.3819,52.935 Z" id="Fill-314" fill="#5C6062"></path>
            <polygon id="Fill-316" fill="#5C6062" points="215.7063 17.2699 239.2473 17.2699 239.2473 25.3169 225.5463 25.3169 225.5463 32.0579 238.4323 32.0579 238.4323 39.9959 225.5463 39.9959 225.5463 53.9139 215.7063 53.9139"></polygon>
            <path d="M261.9169,46.737 C266.6459,46.737 269.4189,42.17 269.4189,35.537 C269.4189,29.231 266.5919,24.446 261.8079,24.446 C257.0769,24.446 254.1959,29.231 254.1959,35.592 C254.1419,42.17 257.0769,46.737 261.8079,46.737 L261.9169,46.737 Z M261.4269,54.511 C250.0639,54.511 243.8119,45.976 243.8119,35.809 C243.8119,25.154 250.7709,16.672 262.0249,16.672 C273.8219,16.672 279.8029,25.425 279.8029,35.211 C279.8029,47.009 272.7359,54.511 261.4809,54.511 L261.4269,54.511 Z" id="Fill-318" fill="#5C6062"></path>
            <path d="M292.5758,33.091 L295.1308,33.091 C298.8278,33.091 300.9488,31.296 300.9488,28.578 C300.9488,25.86 299.1548,24.283 295.8928,24.283 C294.0438,24.283 293.0648,24.392 292.5758,24.501 L292.5758,33.091 Z M282.8438,17.813 C285.6168,17.378 289.8038,16.998 294.6968,16.998 C300.2958,16.998 304.3198,17.759 307.0918,19.879 C309.4298,21.674 310.6808,24.283 310.6808,27.818 C310.6808,32.384 307.2548,35.592 304.4278,36.679 L304.4278,36.842 C306.8198,37.929 308.1798,40.268 309.1038,43.42 C310.1908,47.172 311.3868,52.5 312.0938,53.913 L302.0898,53.913 C301.5468,52.826 300.5678,49.999 299.5348,45.432 C298.5568,41.083 297.1968,40.158 294.1528,40.158 L292.5758,40.158 L292.5758,53.913 L282.8438,53.913 L282.8438,17.813 Z" id="Fill-320" fill="#5C6062"></path>
            <path d="M82.6638,72.1748 L83.2518,68.1868 C83.4098,67.1398 83.6248,65.8208 83.8978,64.4148 L83.8548,64.4148 C83.3238,65.6628 82.7208,66.9968 82.1908,68.0578 L80.2108,72.0168 L78.6048,72.0168 L78.2608,68.1008 C78.1748,67.0398 78.1028,65.7058 78.0448,64.4148 L78.0168,64.4148 C77.7438,65.6918 77.4568,67.1538 77.2128,68.1868 L76.2518,72.1748 L74.3588,72.1748 L76.7828,62.5078 L79.5518,62.5078 L79.8528,66.1938 C79.9098,67.0978 80.0108,68.1868 80.0248,69.2628 L80.0818,69.2628 C80.4558,68.1868 80.9718,67.0538 81.3868,66.1798 L83.1798,62.5078 L85.9778,62.5078 L84.6718,72.1748 L82.6638,72.1748 Z" id="Fill-322" fill="#024189"></path>
            <polygon id="Fill-324" fill="#024189" points="92.6483 68.0582 89.2203 68.0582 88.7753 70.4102 92.6343 70.4102 92.3043 72.1752 86.3663 72.1752 88.2023 62.5072 93.9253 62.5072 93.5803 64.2712 89.9373 64.2712 89.5363 66.3222 92.9933 66.3222"></polygon>
            <path d="M101.0262,71.9019 C100.5102,72.1319 99.6492,72.3189 98.4872,72.3189 C95.9202,72.3189 94.2132,70.7689 94.2132,68.2159 C94.2132,66.0359 95.1882,64.3579 96.6512,63.3819 C97.6562,62.6929 98.8312,62.3639 100.1942,62.3639 C101.2412,62.3639 102.0302,62.6079 102.3172,62.7659 L101.7432,64.4439 C101.4712,64.2999 100.8252,64.1279 99.9942,64.1279 C99.1612,64.1279 98.3732,64.3859 97.7852,64.8739 C96.9812,65.5339 96.4502,66.6379 96.4502,67.9869 C96.4502,69.5209 97.3262,70.5539 99.0182,70.5539 C99.7062,70.5539 100.3802,70.4389 100.8542,70.2389 L101.0262,71.9019 Z" id="Fill-326" fill="#024189"></path>
            <polygon id="Fill-328" fill="#024189" points="106.048 62.5075 105.33 66.2645 108.83 66.2645 109.548 62.5075 111.627 62.5075 109.791 72.1745 107.726 72.1745 108.486 68.1005 104.972 68.1005 104.212 72.1745 102.146 72.1745 103.982 62.5075"></polygon>
            <path d="M117.0647,68.0869 L116.8777,66.0069 C116.8347,65.4759 116.7917,64.7019 116.7487,64.1129 L116.7057,64.1129 C116.4617,64.7019 116.1897,65.4469 115.9317,66.0069 L114.9857,68.0869 L117.0647,68.0869 Z M114.3687,69.6649 L113.2347,72.1749 L111.0257,72.1749 L115.7447,62.5079 L118.3987,62.5079 L119.5167,72.1749 L117.3517,72.1749 L117.1507,69.6649 L114.3687,69.6649 Z" id="Fill-330" fill="#024189"></path>
            <path d="M120.5658,72.1748 L122.4008,62.5078 L124.8258,62.5078 L126.1028,66.1938 C126.4898,67.4268 126.7478,68.4318 126.9768,69.4928 L127.0198,69.4928 C127.0638,68.5028 127.2068,67.4408 127.4648,66.0218 L128.1248,62.5078 L130.0608,62.5078 L128.2248,72.1748 L126.0878,72.1748 L124.7398,68.3158 C124.3088,66.9968 124.0508,66.1218 123.7928,64.9458 L123.7498,64.9458 C123.6498,65.8928 123.4198,67.2548 123.1328,68.7898 L122.4878,72.1748 L120.5658,72.1748 Z" id="Fill-332" fill="#024189"></path>
            <polygon id="Fill-334" fill="#024189" points="133.9783 62.5075 132.1423 72.1745 130.0773 72.1745 131.9123 62.5075"></polygon>
            <path d="M141.2938,71.9019 C140.7778,72.1319 139.9168,72.3189 138.7548,72.3189 C136.1878,72.3189 134.4808,70.7689 134.4808,68.2159 C134.4808,66.0359 135.4558,64.3579 136.9188,63.3819 C137.9228,62.6929 139.0988,62.3639 140.4618,62.3639 C141.5078,62.3639 142.2968,62.6079 142.5838,62.7659 L142.0108,64.4439 C141.7388,64.2999 141.0928,64.1279 140.2608,64.1279 C139.4288,64.1279 138.6398,64.3859 138.0518,64.8739 C137.2488,65.5339 136.7178,66.6379 136.7178,67.9869 C136.7178,69.5209 137.5928,70.5539 139.2858,70.5539 C139.9738,70.5539 140.6478,70.4389 141.1218,70.2389 L141.2938,71.9019 Z" id="Fill-336" fill="#024189"></path>
            <path d="M147.8777,68.0869 L147.6917,66.0069 C147.6487,65.4759 147.6057,64.7019 147.5617,64.1129 L147.5187,64.1129 C147.2757,64.7019 147.0037,65.4469 146.7447,66.0069 L145.7987,68.0869 L147.8777,68.0869 Z M145.1817,69.6649 L144.0477,72.1749 L141.8397,72.1749 L146.5587,62.5079 L149.2117,62.5079 L150.3307,72.1749 L148.1647,72.1749 L147.9647,69.6649 L145.1817,69.6649 Z" id="Fill-338" fill="#024189"></path>
            <polygon id="Fill-340" fill="#024189" points="153.2151 62.5075 155.2811 62.5075 153.7891 70.3675 157.5041 70.3675 157.1591 72.1745 151.3791 72.1745"></polygon>
            <path d="M168.2478,71.9019 C167.7318,72.1319 166.8718,72.3189 165.7098,72.3189 C163.1418,72.3189 161.4348,70.7689 161.4348,68.2159 C161.4348,66.0359 162.4108,64.3579 163.8738,63.3819 C164.8778,62.6929 166.0538,62.3639 167.4168,62.3639 C168.4638,62.3639 169.2528,62.6079 169.5388,62.7659 L168.9658,64.4439 C168.6928,64.2999 168.0478,64.1279 167.2158,64.1279 C166.3848,64.1279 165.5958,64.3859 165.0068,64.8739 C164.2038,65.5339 163.6728,66.6379 163.6728,67.9869 C163.6728,69.5209 164.5478,70.5539 166.2398,70.5539 C166.9288,70.5539 167.6028,70.4389 168.0768,70.2389 L168.2478,71.9019 Z" id="Fill-342" fill="#024189"></path>
            <path d="M173.6577,70.6116 C174.2737,70.6116 174.8337,70.3526 175.2777,69.9086 C176.0387,69.1476 176.4547,67.5556 176.4547,66.4376 C176.4547,65.2326 176.0237,64.0706 174.5037,64.0706 C173.8577,64.0706 173.2837,64.3436 172.8397,64.8016 C172.0657,65.5626 171.6347,67.0686 171.6347,68.2296 C171.6347,69.5926 172.2517,70.6116 173.6437,70.6116 L173.6577,70.6116 Z M173.3557,72.3326 C170.8457,72.3326 169.4407,70.5546 169.4407,68.3026 C169.4407,66.5516 170.0857,64.8166 171.2187,63.7266 C172.1217,62.8656 173.3557,62.3496 174.7477,62.3496 C177.3007,62.3496 178.6497,64.0706 178.6497,66.3796 C178.6497,68.1446 178.0317,69.8656 176.9277,70.9416 C176.0237,71.8166 174.8047,72.3326 173.3707,72.3326 L173.3557,72.3326 Z" id="Fill-344" fill="#024189"></path>
            <path d="M187.2136,72.1748 L187.8006,68.1868 C187.9586,67.1398 188.1736,65.8208 188.4466,64.4148 L188.4036,64.4148 C187.8736,65.6628 187.2706,66.9968 186.7406,68.0578 L184.7606,72.0168 L183.1536,72.0168 L182.8106,68.1008 C182.7236,67.0398 182.6526,65.7058 182.5946,64.4148 L182.5656,64.4148 C182.2926,65.6918 182.0066,67.1538 181.7626,68.1868 L180.8006,72.1748 L178.9086,72.1748 L181.3326,62.5078 L184.1006,62.5078 L184.4016,66.1938 C184.4596,67.0978 184.5596,68.1868 184.5736,69.2628 L184.6316,69.2628 C185.0046,68.1868 185.5196,67.0538 185.9356,66.1798 L187.7296,62.5078 L190.5256,62.5078 L189.2216,72.1748 L187.2136,72.1748 Z" id="Fill-346" fill="#024189"></path>
            <path d="M193.913,67.0111 C194.128,67.0541 194.358,67.0831 194.716,67.0831 C195.95,67.0831 196.767,66.2801 196.767,65.3181 C196.767,64.3861 196.093,64.0841 195.304,64.0841 C194.917,64.0841 194.63,64.1131 194.458,64.1421 L193.913,67.0111 Z M192.708,62.6791 C193.339,62.5211 194.3,62.4351 195.233,62.4351 C196.108,62.4351 197.097,62.5791 197.8,63.0811 C198.46,63.5111 198.847,64.2001 198.847,65.1321 C198.847,66.3511 198.288,67.2831 197.542,67.8571 C196.753,68.4741 195.619,68.7611 194.444,68.7611 C194.099,68.7611 193.813,68.7181 193.597,68.7031 L192.938,72.1751 L190.916,72.1751 L192.708,62.6791 Z" id="Fill-348" fill="#024189"></path>
            <path d="M203.5677,70.6116 C204.1837,70.6116 204.7437,70.3526 205.1877,69.9086 C205.9487,69.1476 206.3647,67.5556 206.3647,66.4376 C206.3647,65.2326 205.9347,64.0706 204.4137,64.0706 C203.7677,64.0706 203.1947,64.3436 202.7497,64.8016 C201.9757,65.5626 201.5447,67.0686 201.5447,68.2296 C201.5447,69.5926 202.1617,70.6116 203.5537,70.6116 L203.5677,70.6116 Z M203.2657,72.3326 C200.7557,72.3326 199.3507,70.5546 199.3507,68.3026 C199.3507,66.5516 199.9957,64.8166 201.1287,63.7266 C202.0327,62.8656 203.2657,62.3496 204.6567,62.3496 C207.2107,62.3496 208.5597,64.0706 208.5597,66.3796 C208.5597,68.1446 207.9427,69.8656 206.8377,70.9416 C205.9347,71.8166 204.7147,72.3326 203.2807,72.3326 L203.2657,72.3326 Z" id="Fill-350" fill="#024189"></path>
            <path d="M209.0484,72.1748 L210.8834,62.5078 L213.3074,62.5078 L214.5854,66.1938 C214.9714,67.4268 215.2294,68.4318 215.4594,69.4928 L215.5024,69.4928 C215.5454,68.5028 215.6884,67.4408 215.9474,66.0218 L216.6064,62.5078 L218.5434,62.5078 L216.7074,72.1748 L214.5704,72.1748 L213.2214,68.3158 C212.7914,66.9968 212.5334,66.1218 212.2754,64.9458 L212.2314,64.9458 C212.1324,65.8928 211.9024,67.2548 211.6154,68.7898 L210.9694,72.1748 L209.0484,72.1748 Z" id="Fill-352" fill="#024189"></path>
            <polygon id="Fill-354" fill="#024189" points="224.8838 68.0582 221.4558 68.0582 221.0108 70.4102 224.8698 70.4102 224.5398 72.1752 218.6018 72.1752 220.4378 62.5072 226.1608 62.5072 225.8168 64.2712 222.1728 64.2712 221.7718 66.3222 225.2278 66.3222"></polygon>
            <path d="M226.0186,72.1748 L227.8546,62.5078 L230.2786,62.5078 L231.5556,66.1938 C231.9426,67.4268 232.2006,68.4318 232.4296,69.4928 L232.4736,69.4928 C232.5166,68.5028 232.6596,67.4408 232.9186,66.0218 L233.5776,62.5078 L235.5136,62.5078 L233.6786,72.1748 L231.5406,72.1748 L230.1916,68.3158 C229.7616,66.9968 229.5036,66.1218 229.2466,64.9458 L229.2026,64.9458 C229.1026,65.8928 228.8726,67.2548 228.5866,68.7898 L227.9406,72.1748 L226.0186,72.1748 Z" id="Fill-356" fill="#024189"></path>
            <polygon id="Fill-358" fill="#024189" points="238.8135 64.3147 236.2605 64.3147 236.6195 62.5077 243.8055 62.5077 243.4605 64.3147 240.8785 64.3147 239.3875 72.1747 237.3215 72.1747"></polygon>
            <path d="M243.6336,69.9369 C244.2066,70.2669 245.0106,70.5389 245.9136,70.5389 C246.7026,70.5389 247.4346,70.1669 247.4346,69.4209 C247.4346,68.8609 247.0186,68.5169 246.1286,68.0439 C245.1116,67.4989 244.1356,66.7529 244.1356,65.5049 C244.1356,63.5549 245.8286,62.3639 247.9366,62.3639 C249.0986,62.3639 249.7876,62.6219 250.2036,62.8369 L249.5566,64.5579 C249.2416,64.3859 248.5676,64.1279 247.7646,64.1419 C246.8036,64.1419 246.3016,64.6159 246.3016,65.1469 C246.3016,65.7059 246.8896,66.0499 247.7066,66.5089 C248.8836,67.1259 249.6146,67.8999 249.6146,69.0629 C249.6146,71.2139 247.8366,72.3189 245.6986,72.3189 C244.3646,72.3039 243.3896,71.9599 242.9446,71.6299 L243.6336,69.9369 Z" id="Fill-360" fill="#024189"></path>
            <path d="M253.5888,69.9369 C254.1628,70.2669 254.9658,70.5389 255.8698,70.5389 C256.6588,70.5389 257.3898,70.1669 257.3898,69.4209 C257.3898,68.8609 256.9748,68.5169 256.0848,68.0439 C255.0668,67.4989 254.0908,66.7529 254.0908,65.5049 C254.0908,63.5549 255.7838,62.3639 257.8918,62.3639 C259.0548,62.3639 259.7428,62.6219 260.1588,62.8369 L259.5128,64.5579 C259.1968,64.3859 258.5228,64.1279 257.7208,64.1419 C256.7588,64.1419 256.2568,64.6159 256.2568,65.1469 C256.2568,65.7059 256.8448,66.0499 257.6628,66.5089 C258.8388,67.1259 259.5698,67.8999 259.5698,69.0629 C259.5698,71.2139 257.7918,72.3189 255.6548,72.3189 C254.3208,72.3039 253.3458,71.9599 252.8998,71.6299 L253.5888,69.9369 Z" id="Fill-362" fill="#024189"></path>
            <path d="M264.3337,62.5075 L263.2857,68.0725 C263.2137,68.4025 263.1717,68.7895 263.1717,69.2055 C263.1717,69.9945 263.6587,70.5965 264.5767,70.5965 C265.6667,70.5965 266.3697,69.8805 266.7147,68.0865 L267.7747,62.5075 L269.8417,62.5075 L268.7937,68.0005 C268.2347,70.9275 266.9577,72.3325 264.3187,72.3325 C262.3257,72.3465 261.1057,71.2995 261.1057,69.2485 C261.1057,68.8325 261.1637,68.3595 261.2497,67.9005 L262.2667,62.5075 L264.3337,62.5075 Z" id="Fill-364" fill="#024189"></path>
            <path d="M272.8686,67.0111 C273.0846,67.0541 273.3136,67.0831 273.6726,67.0831 C274.9066,67.0831 275.7236,66.2801 275.7236,65.3181 C275.7236,64.3861 275.0496,64.0841 274.2606,64.0841 C273.8726,64.0841 273.5866,64.1131 273.4146,64.1421 L272.8686,67.0111 Z M271.6646,62.6791 C272.2956,62.5211 273.2566,62.4351 274.1886,62.4351 C275.0646,62.4351 276.0536,62.5791 276.7566,63.0811 C277.4166,63.5111 277.8036,64.2001 277.8036,65.1321 C277.8036,66.3511 277.2436,67.2831 276.4976,67.8571 C275.7096,68.4741 274.5756,68.7611 273.4006,68.7611 C273.0556,68.7611 272.7686,68.7181 272.5526,68.7031 L271.8936,72.1751 L269.8716,72.1751 L271.6646,62.6791 Z" id="Fill-366" fill="#024189"></path>
            <path d="M280.9596,67.0111 C281.1746,67.0541 281.4046,67.0831 281.7636,67.0831 C282.9966,67.0831 283.8146,66.2801 283.8146,65.3181 C283.8146,64.3861 283.1406,64.0841 282.3516,64.0841 C281.9636,64.0841 281.6766,64.1131 281.5056,64.1421 L280.9596,67.0111 Z M279.7556,62.6791 C280.3856,62.5211 281.3476,62.4351 282.2796,62.4351 C283.1546,62.4351 284.1446,62.5791 284.8476,63.0811 C285.5076,63.5111 285.8936,64.2001 285.8936,65.1321 C285.8936,66.3511 285.3346,67.2831 284.5886,67.8571 C283.7996,68.4741 282.6666,68.7611 281.4906,68.7611 C281.1456,68.7611 280.8596,68.7181 280.6436,68.7031 L279.9836,72.1751 L277.9626,72.1751 L279.7556,62.6791 Z" id="Fill-368" fill="#024189"></path>
            <polygon id="Fill-370" fill="#024189" points="287.8901 62.5075 289.9551 62.5075 288.4641 70.3675 292.1791 70.3675 291.8341 72.1745 286.0541 72.1745"></polygon>
            <polygon id="Fill-372" fill="#024189" points="296.8992 62.5075 295.0632 72.1745 292.9972 72.1745 294.8322 62.5075"></polygon>
            <polygon id="Fill-374" fill="#024189" points="303.2535 68.0582 299.8255 68.0582 299.3805 70.4102 303.2395 70.4102 302.9095 72.1752 296.9705 72.1752 298.8075 62.5072 304.5295 62.5072 304.1855 64.2712 300.5425 64.2712 300.1415 66.3222 303.5975 66.3222"></polygon>
            <path d="M304.8179,69.9369 C305.3919,70.2669 306.1949,70.5389 307.0979,70.5389 C307.8869,70.5389 308.6189,70.1669 308.6189,69.4209 C308.6189,68.8609 308.2029,68.5169 307.3139,68.0439 C306.2959,67.4989 305.3199,66.7529 305.3199,65.5049 C305.3199,63.5549 307.0129,62.3639 309.1209,62.3639 C310.2829,62.3639 310.9719,62.6219 311.3879,62.8369 L310.7419,64.5579 C310.4259,64.3859 309.7519,64.1279 308.9499,64.1419 C307.9879,64.1419 307.4859,64.6159 307.4859,65.1469 C307.4859,65.7059 308.0739,66.0499 308.8909,66.5089 C310.0679,67.1259 310.7989,67.8999 310.7989,69.0629 C310.7989,71.2139 309.0209,72.3189 306.8829,72.3189 C305.5499,72.3039 304.5749,71.9599 304.1289,71.6299 L304.8179,69.9369 Z" id="Fill-376" fill="#024189"></path>
            <g id="Group-380">
                <mask id="mask-2" fill="white">
                    <use xlink:href="#path-1"></use>
                </mask>
                <g id="Clip-379"></g>
                <path d="M35.3987,37.1049 L28.9547,30.6599 L22.4807,37.1049 L28.9547,43.5479 L35.3987,37.1049 Z M28.9547,75.3909 L49.4247,54.9209 L49.4247,10.1899 L34.9047,24.7099 L47.3017,37.1059 L28.9617,55.4459 L28.9177,55.4459 L10.5777,37.1059 L22.9747,24.7099 L8.4547,10.1899 L8.4547,54.9209 L28.9247,75.3909 L28.9547,75.3909 Z M28.9187,87.3389 L-0.0003,58.4199 L-0.0003,-9.99999999e-05 L10.1947,-9.99999999e-05 L28.9387,18.7429 L47.6847,-9.99999999e-05 L57.8797,-9.99999999e-05 L57.8797,58.4199 L28.9607,87.3389 L28.9187,87.3389 Z" id="Fill-378" fill="#024189" mask="url(#mask-2)"></path>
            </g>
        </g>
    </g>
</svg>