<?xml version="1.0" encoding="UTF-8"?>
<svg width="453px" height="650px" viewBox="0 0 453 650" version="1.1" xmlns="http://www.w3.org/2000/svg" xmlns:xlink="http://www.w3.org/1999/xlink">
    <g id="Page-1" stroke="none" stroke-width="1" fill="none" fill-rule="evenodd">
        <path d="M81.4841699,19.4861616 L226.37293,154.179143 L373.040438,19.4861616 L412.498342,19.4861616 L412.498342,410.789055 L226.374334,592.110846 L39.5375448,410.788493 L39.5375448,19.4861616 L81.4841699,19.4861616 Z" id="Rectangle" stroke="#979797" fill="#FFFFFF"></path>
        <g id="logo-symbol" fill="#E3E3E3" fill-rule="nonzero">
            <path d="M338.98,0 L226.364,112.599 L113.765,0 L0,0 L0,422.954 L226.209,649.163 L226.541,649.163 L452.75,422.954 L452.75,0 L338.98,0 Z M226.546,399.691 L370.001,256.235 L273.038,159.272 L386.615,45.694 L386.615,395.585 L226.496,555.704 L226.254,555.704 L66.135,395.585 L66.135,45.694 L179.712,159.272 L82.749,256.235 L226.204,399.691 L226.546,399.691 Z M175.852,256.226 L226.496,205.808 L276.898,256.226 L226.496,306.627 L175.852,256.226 Z" id="Fill-307"></path>
        </g>
    </g>
</svg>